<svg xmlns="http://www.w3.org/2000/svg" version="1.1" width="512" height="512" x="0" y="0" viewBox="0 0 512 512" style="enable-background:new 0 0 512 512" xml:space="preserve" class=""><g><linearGradient id="a" x1="-.002" x2="511.979" y1="258.015" y2="258.015" gradientTransform="matrix(1 0 0 -1 .002 514.025)" gradientUnits="userSpaceOnUse"><stop offset="0" style="stop-color:#00F2FE"></stop><stop offset=".021" style="stop-color:#03EFFE"></stop><stop offset=".293" style="stop-color:#24D2FE"></stop><stop offset=".554" style="stop-color:#3CBDFE"></stop><stop offset=".796" style="stop-color:#4AB0FE"></stop><stop offset="1" style="stop-color:#4FACFE"></stop></linearGradient><path d="M279.166 57.91c4.623 0 8.968 1.8 12.299 5.131l121.946 121.021c11.205 11.204 26.018 16.82 40.841 16.818 14.543-.001 29.096-5.408 40.246-16.246 12.918-12.558 19.16-30.035 17.125-47.95-1.466-12.91-7.341-25.088-16.585-34.329l-28.735-28.569 19.717-19.742c7.806-7.815 7.798-20.48-.018-28.285s-20.48-7.799-28.285.017l-19.782 19.806-28.927-28.762c-22.2-22.198-58.574-22.455-81.085-.572a57.823 57.823 0 0 0-11.395 15.531c-10.391-8.965-23.496-13.871-37.36-13.871-15.308 0-29.699 5.961-40.523 16.785-10.824 10.823-16.786 25.216-16.786 40.523s5.961 29.699 16.741 40.479l64.413 64.82-96.174 96.427c-7.8 7.82-7.784 20.484.037 28.285a19.94 19.94 0 0 0 14.125 5.839 19.94 19.94 0 0 0 14.162-5.877l96.047-96.3 65.83 66.246c10.824 10.824 25.216 16.786 40.523 16.786 15.308 0 29.699-5.961 40.524-16.786 7.81-7.811 7.81-20.475 0-28.285s-20.475-7.81-28.286.001a17.19 17.19 0 0 1-12.237 5.068c-4.622 0-8.968-1.8-12.192-5.024L266.929 87.453a17.19 17.19 0 0 1-5.069-12.236c0-4.622 1.8-8.968 5.069-12.237a17.19 17.19 0 0 1 12.237-5.07zm162.49 97.824-86.029-85.531a17.615 17.615 0 0 1-5.197-12.673 17.62 17.62 0 0 1 5.375-12.599c3.421-3.326 7.884-4.987 12.352-4.987 4.566 0 9.137 1.735 12.605 5.203l86.03 85.533c3.625 3.625 4.765 7.72 5.083 10.517.626 5.517-1.292 10.895-5.261 14.755-6.917 6.724-18.094 6.645-24.958-.218M114.825 237.85l-.082-.082c-10.824-10.824-25.216-16.786-40.524-16.786s-29.699 5.961-40.523 16.785c-21.625 21.626-22.32 56.376-2.087 78.846A57.856 57.856 0 0 0 16.25 327.92c-21.884 22.511-21.626 58.886.533 81.043l28.801 28.969-19.806 19.782c-7.815 7.806-7.823 20.471-.018 28.285a19.937 19.937 0 0 0 14.152 5.867 19.939 19.939 0 0 0 14.134-5.849L73.788 466.3l28.608 28.774c9.2 9.202 21.378 15.079 34.291 16.546 2.229.253 4.449.378 6.657.378 15.53 0 30.298-6.193 41.294-17.504a57.057 57.057 0 0 0 9.627-13.295c11.022 10.44 25.199 15.677 39.386 15.677 14.676 0 29.351-5.586 40.524-16.759 22.329-22.329 22.343-58.652.044-81.001L114.825 237.85zm41.13 228.762c-3.86 3.97-9.239 5.888-14.753 5.262-2.798-.318-6.894-1.458-10.478-5.042L45.111 380.72c-6.822-6.821-6.901-17.999-.176-24.917a17.613 17.613 0 0 1 12.598-5.375h.129c4.184 0 8.141 1.44 11.291 4.058l89.3 90.35c4.219 6.764 3.476 15.836-2.298 21.776zm65.491-14.749L62.065 290.609l-.083-.083c-6.747-6.747-6.747-17.727 0-24.475a17.19 17.19 0 0 1 12.236-5.068 17.19 17.19 0 0 1 12.205 5.037l159.381 161.253.082.082c6.748 6.748 6.748 17.729 0 24.476-6.734 6.739-17.691 6.748-24.44.032" style="fill:url(#a);" fill=""></path></g></svg>